<svg preserveAspectRatio="none" width="100%" height="100%" overflow="visible" style="display: block;" viewBox="0 0 48 53.3333" fill="none" xmlns="http://www.w3.org/2000/svg">
<g id="Container">
<path id="Icon" d="M14.8 53.3333C13.5556 53.3333 12.4667 52.9556 11.5333 52.2C10.6 51.4444 9.97778 50.4667 9.66667 49.2667L6.66667 37.3333H41.3333L38.3333 49.2667C38.0222 50.4667 37.4 51.4444 36.4667 52.2C35.5333 52.9556 34.4444 53.3333 33.2 53.3333H14.8V53.3333M24 16C24 11.5556 25.5556 7.77778 28.6667 4.66667C31.7778 1.55556 35.5556 0 40 0C40 4 38.7333 7.46667 36.2 10.4C33.6667 13.3333 30.4889 15.1111 26.6667 15.7333V21.3333H48V29.3333C48 30.8 47.4778 32.0556 46.4333 33.1C45.3889 34.1444 44.1333 34.6667 42.6667 34.6667H5.33333C3.86667 34.6667 2.61111 34.1444 1.56667 33.1C0.522222 32.0556 0 30.8 0 29.3333V21.3333H21.3333V15.7333C17.5111 15.1111 14.3333 13.3333 11.8 10.4C9.26667 7.46667 8 4 8 0C12.4444 0 16.2222 1.55556 19.3333 4.66667C22.4444 7.77778 24 11.5556 24 16V16" fill="#006E1C"/>
</g>
</svg>
